HIERARCHY
ROOT hip
{
  OFFSET 0 0 0
  CHANNELS 6 Xposition Yposition Zposition Zrotation Yrotation Xrotation
  JOINT abdomen
  {
    OFFSET 0 20.6881 -0.73152
    CHANNELS 3 Zrotation Xrotation Yrotation
    JOINT chest
    {
      OFFSET 0 11.7043 -0.48768
      CHANNELS 3 Zrotation Xrotation Yrotation
      JOINT neck
      {
        OFFSET 0 22.1894 -2.19456
        CHANNELS 3 Zrotation Xrotation Yrotation
        JOINT head
        {
          OFFSET -0.24384 7.07133 1.2192
          CHANNELS 3 Zrotation Xrotation Yrotation
          JOINT leftEye
          {
            OFFSET 4.14528 8.04674 8.04672
            CHANNELS 3 Zrotation Xrotation Yrotation
            End Site
            {
              OFFSET 1 0 0
            }
          }
          JOINT rightEye
          {
            OFFSET -3.6576 8.04674 8.04672
            CHANNELS 3 Zrotation Xrotation Yrotation
            End Site
            {
              OFFSET 1 0 0
            }
          }
        }
      }
      JOINT rCollar
      {
        OFFSET -2.68224 19.2634 -4.8768
        CHANNELS 3 Zrotation Xrotation Yrotation
        JOINT rShldr
        {
          OFFSET -8.77824 -1.95073 1.46304
          CHANNELS 3 Zrotation Xrotation Yrotation
          JOINT rForeArm
          {
            OFFSET -28.1742 -1.7115 0.48768
            CHANNELS 3 Zrotation Xrotation Yrotation
            JOINT rHand
            {
              OFFSET -22.5879 0.773209 7.07136
              CHANNELS 3 Zrotation Xrotation Yrotation
              JOINT rThumb1
              {
                OFFSET -1.2192 -0.487915 3.41376
                CHANNELS 3 Zrotation Xrotation Yrotation
                JOINT rThumb2
                {
                  OFFSET -3.37035 -0.52449 3.41376
                  CHANNELS 3 Zrotation Xrotation Yrotation
                  End Site
                  {
                    OFFSET -1.78271 -1.18214 1.43049
                  }
                }
              }
              JOINT rIndex1
              {
                OFFSET -7.75947 0.938293 5.60832
                CHANNELS 3 Zrotation Xrotation Yrotation
                JOINT rIndex2
                {
                  OFFSET -2.54057 -0.884171 1.56538
                  CHANNELS 3 Zrotation Xrotation Yrotation
                  End Site
                  {
                    OFFSET -1.62519 -0.234802 1.16502
                  }
                }
              }
              JOINT rMid1
              {
                OFFSET -8.24714 1.18213 3.41376
                CHANNELS 3 Zrotation Xrotation Yrotation
                JOINT rMid2
                {
                  OFFSET -3.10165 -0.590103 1.0647
                  CHANNELS 3 Zrotation Xrotation Yrotation
                  End Site
                  {
                    OFFSET -2.48547 -0.328903 0.83742
                  }
                }
              }
              JOINT rRing1
              {
                OFFSET -8.82822 0.546677 1.51678
                CHANNELS 3 Zrotation Xrotation Yrotation
                JOINT rRing2
                {
                  OFFSET -2.60934 -0.819778 -0.0198488
                  CHANNELS 3 Zrotation Xrotation Yrotation
                  End Site
                  {
                    OFFSET -2.33842 -0.294052 0.168128
                  }
                }
              }
              JOINT rPinky1
              {
                OFFSET -8.27202 -0.0477905 -0.4584
                CHANNELS 3 Zrotation Xrotation Yrotation
                JOINT rPinky2
                {
                  OFFSET -1.82734 -0.647385 -0.700984
                  CHANNELS 3 Zrotation Xrotation Yrotation
                  End Site
                  {
                    OFFSET -1.69225 -0.51767 -0.607171
                  }
                }
              }
            }
          }
        }
      }
      JOINT lCollar
      {
        OFFSET 2.68224 19.2634 -4.8768
        CHANNELS 3 Zrotation Xrotation Yrotation
        JOINT lShldr
        {
          OFFSET 8.77824 -1.95073 1.46304
          CHANNELS 3 Zrotation Xrotation Yrotation
          JOINT lForeArm
          {
            OFFSET 28.1742 -1.7115 0.48768
            CHANNELS 3 Zrotation Xrotation Yrotation
            JOINT lHand
            {
              OFFSET 22.5879 0.773209 7.07136
              CHANNELS 3 Zrotation Xrotation Yrotation
              JOINT lThumb1
              {
                OFFSET 1.2192 -0.487915 3.41376
                CHANNELS 3 Zrotation Xrotation Yrotation
                JOINT lThumb2
                {
                  OFFSET 3.37035 -0.52449 3.41376
                  CHANNELS 3 Zrotation Xrotation Yrotation
                  End Site
                  {
                    OFFSET 1.78271 -1.18214 1.43049
                  }
                }
              }
              JOINT lIndex1
              {
                OFFSET 7.75947 0.938293 5.60832
                CHANNELS 3 Zrotation Xrotation Yrotation
                JOINT lIndex2
                {
                  OFFSET 2.54057 -0.884171 1.56538
                  CHANNELS 3 Zrotation Xrotation Yrotation
                  End Site
                  {
                    OFFSET 1.62519 -0.234802 1.16502
                  }
                }
              }
              JOINT lMid1
              {
                OFFSET 8.24714 1.18213 3.41376
                CHANNELS 3 Zrotation Xrotation Yrotation
                JOINT lMid2
                {
                  OFFSET 3.10165 -0.590103 1.0647
                  CHANNELS 3 Zrotation Xrotation Yrotation
                  End Site
                  {
                    OFFSET 2.48547 -0.328903 0.83742
                  }
                }
              }
              JOINT lRing1
              {
                OFFSET 8.82822 0.546677 1.51678
                CHANNELS 3 Zrotation Xrotation Yrotation
                JOINT lRing2
                {
                  OFFSET 2.60934 -0.819778 -0.0198488
                  CHANNELS 3 Zrotation Xrotation Yrotation
                  End Site
                  {
                    OFFSET 2.33842 -0.294052 0.168128
                  }
                }
              }
              JOINT lPinky1
              {
                OFFSET 8.27202 -0.0477905 -0.4584
                CHANNELS 3 Zrotation Xrotation Yrotation
                JOINT lPinky2
                {
                  OFFSET 1.82734 -0.647385 -0.700984
                  CHANNELS 3 Zrotation Xrotation Yrotation
                  End Site
                  {
                    OFFSET 1.69225 -0.51767 -0.607171
                  }
                }
              }
            }
          }
        }
      }
    }
  }
  JOINT rButtock
  {
    OFFSET -8.77824 4.35084 1.2192
    CHANNELS 3 Zrotation Xrotation Yrotation
    JOINT rThigh
    {
      OFFSET 0 -1.70687 -2.19456
      CHANNELS 3 Zrotation Xrotation Yrotation
      JOINT rShin
      {
        OFFSET 0 -36.8199 0.73152
        CHANNELS 3 Zrotation Xrotation Yrotation
        JOINT rFoot
        {
          OFFSET 0.73152 -45.1104 -5.12064
          CHANNELS 3 Zrotation Xrotation Yrotation
          End Site
          {
            OFFSET -1.1221 -3.69964 12.103
          }
        }
      }
    }
  }
  JOINT lButtock
  {
    OFFSET 8.77824 4.35084 1.2192
    CHANNELS 3 Zrotation Xrotation Yrotation
    JOINT lThigh
    {
      OFFSET 0 -1.70687 -2.19456
      CHANNELS 3 Zrotation Xrotation Yrotation
      JOINT lShin
      {
        OFFSET 0 -36.8199 0.73152
        CHANNELS 3 Zrotation Xrotation Yrotation
        JOINT lFoot
        {
          OFFSET -0.73152 -45.1104 -5.12064
          CHANNELS 3 Zrotation Xrotation Yrotation
          End Site
          {
            OFFSET 1.1221 -3.69964 12.103
          }
        }
      }
    }
  }
}
MOTION
Frames:	7
Frame Time:	0.03333
78.491 53.3794 47.1129 -163.185518 -28.063046 176.362955 12.341974 5.793897 -180.0 -2.215519 2.459964 -177.111749 6.531804 31.899053 158.420922 -19.009911 39.296719 -130.348234 -0.000604 -0.0 0.001454 0.005112 -0.0 -0.002724 0.162414 -0.990117 -0.218404 71.740691 18.549207 -41.776354 87.505002 41.361758 69.934769 -45.040666 43.488231 24.76487 -7.758271 7.439248 1.681776 -161.340706 -66.771341 110.044104 -50.386777 40.826071 40.024792 -164.636971 -11.211249 112.389502 -36.035463 51.723097 29.832722 2.959804 1.309264 0.246088 0.005091 1.77016 0.558074 9.090894 12.714218 1.660382 -125.8071 -27.876958 -123.551151 2.063498 -2.549409 -2.473061 -0.034535 -0.209452 0.046506 -114.214764 -50.269927 -60.521261 -97.741752 -63.586082 -39.790371 -156.864146 -24.501771 -148.733682 14.793604 13.633452 -3.989207 65.517163 21.04252 -63.06815 2.685247 4.227069 -1.583579 158.647713 -8.819268 -110.051717 175.765007 -50.334651 -144.099235 11.735161 33.302814 -9.439063 145.121939 1.081487 179.466061 71.33932 -78.000324 92.764347 144.942386 11.340724 141.616324 -23.907048 61.00845 -5.605131 -0.004885 0.000948 -0.002443 -10.560505 8.922008 1.446604 10.216275 33.882247 51.499491 -26.040171 -24.320781 -95.682354 -0.002485 -0.000715 -0.001243 79.12148 -53.625288 -0.0 -81.99854 16.869707 -27.901098 -5.882672 30.4184 104.109026
78.4399 53.350699999999996 47.245 -163.519645 -27.799711 176.510316 11.89695 10.744772 -0.0 2.349608 -7.24764 3.170444 -10.213718 23.646736 -77.727725 37.661402 9.231137 97.728154 -0.003808 0.0 -0.002601 0.001849 0.0 0.000478 3.269471 -26.755781 -5.241599 -133.589647 -5.624235 -125.121176 5.112138 42.89935 -145.603084 -157.553478 20.111316 135.529755 -0.49105 0.484898 0.07751 -123.219924 -15.158112 110.473079 -35.098927 35.160337 26.612623 -6.684779 18.958067 3.239479 -160.57359 -6.359553 143.197239 -163.289658 -4.786581 142.965158 -145.119447 0.309599 -179.226748 -148.14426 -43.033163 -170.608342 -145.172433 12.067865 -141.82282 16.936917 43.793374 6.04246 9.652189 34.836061 -11.19964 -58.865535 -19.518863 -61.985855 -118.14501 -38.122967 -102.888892 -172.332379 19.720488 -159.062988 169.562193 -7.242951 -89.930014 -178.46364 -17.728109 -93.596093 166.821165 -43.973994 -122.061527 104.244712 51.163059 -86.198658 89.835063 60.702796 -81.263111 -16.130039 -37.020836 0.633644 0.009224 -0.830969 0.262408 -10.868943 -7.441685 0.972078 44.071115 -47.782616 42.860908 140.162041 -6.022046 137.99567 0.006287 -0.000216 0.006287 -10.066908 6.77875 -123.61884 -29.95585 -21.311751 83.809389 -90.194613 -16.776289 4.781597 179.999769 75.748654 -0.0 -144.363519 -5.408607 -97.490343 -84.708172 -6.632002 -42.441265 -58.009242 57.821557 142.524864
78.4542 53.3288 47.4281 -164.059696 -27.474594 176.764327 8.736975 8.31694 97.235492 -5.15101 -4.234836 -93.988249 11.529936 24.050158 102.634047 -34.079399 11.925839 -78.227009 0.002917 0.0 0.00145 0.002917 0.0 0.00145 -155.513772 -3.574917 161.851437 150.260865 13.206882 126.224709 -10.563675 24.067837 117.524485 -7.873314 -40.041503 -9.016398 -5.432861 5.265303 1.077754 -95.186022 13.36833 87.661897 -10.571114 15.013666 6.864446 -9.428095 23.752541 7.059741 68.983687 -80.154092 40.577698 179.926443 -48.681654 141.194526 -75.40651 72.954844 93.419459 -3.36038 -62.270503 -18.883136 12.631638 42.934357 10.530813 28.785907 75.256596 5.099998 155.548654 -3.804188 -161.900135 4.948125 47.190705 33.624946 -28.290122 -60.845684 37.716132 -143.373942 -43.357471 -136.765537 173.975597 -11.643713 -89.881733 -56.020827 -69.471233 -42.982392 -16.968294 -30.49343 5.899682 174.426441 -35.30313 -107.568305 -6.53227 -20.415066 2.718017 -42.540401 -69.812616 -17.080067 0.022739 -1.725261 0.541751 156.065819 -49.078878 -178.015996 148.749753 24.215711 144.891388 -3.019884 2.424822 1.239515 179.999874 75.748979 0.00013 117.551453 76.77768 63.074969 1.556153 34.082036 -21.022943 157.764775 -23.045073 21.372495 0.0 -0.000539 0.001173 77.379109 -56.085609 167.162829 81.798086 -5.552158 165.368875 -5.914859 86.793865 79.392453
78.6114 53.3211 47.7438 -164.658296 -27.243526 176.989009 8.460463 7.368347 130.767751 -5.382516 -1.153286 -127.441966 -4.097151 32.620861 -143.177778 20.833276 41.592253 158.723774 0.000662 -0.0 -0.003729 0.001395 0.0 0.000644 -9.651561 34.836194 11.199205 -95.392637 -25.801642 -170.551536 -3.91727 -16.402945 -146.152769 -162.226264 9.714614 139.885367 -14.734527 13.585995 3.967177 -128.209833 -27.803647 107.907856 -46.208576 39.652682 36.318518 -27.846173 37.813822 15.820451 89.03495 -81.393769 59.760923 -2.383683 14.685229 2.842962 -0.014257 -1.322796 -0.418203 -156.252234 -46.143504 177.530711 -13.275366 -25.411188 -12.631165 -75.644093 -54.738396 -75.814949 -4.239508 -44.742784 8.647242 -24.067864 -88.148633 40.615367 -12.372131 -66.43303 52.343225 -131.967485 -51.918897 -125.944386 1.476599 1.44996 -0.245292 14.953008 14.726639 -13.769329 14.228562 19.203506 -9.559488 -8.804667 0.663546 0.685084 -89.034562 -81.394164 -59.759431 -146.286198 -73.960259 -114.508846 145.12015 0.267501 179.213013 54.919434 87.580539 -68.113335 -8.48053 26.834066 -7.450316 23.282441 -40.050295 23.559782 0.005456 -0.000713 0.002728 -11.5426 5.475889 -115.044778 -45.747953 -19.25391 -41.644083 -168.785665 45.851643 -100.507515 0.005456 -0.000713 0.002728 76.70259 -56.38107 -180.0 80.433284 -18.666005 172.17756 152.007364 30.43712 -95.007874
79.0325 53.3181 48.2594 -165.561861 -27.148881 177.227493 6.670466 8.865134 104.277166 -5.414294 -3.839249 -100.936439 11.378871 23.487323 98.24054 -34.965096 9.251725 -74.351499 -0.000117 0.0 -0.00047 -0.000117 0.0 -0.00047 0.034812 -0.209384 -0.046918 -101.580462 -14.111547 -139.669814 174.421929 -15.68227 -72.570309 -13.799807 -15.146893 -4.664259 71.830601 -48.2642 25.791904 -55.056114 32.20413 19.65194 -138.764167 4.487136 115.030757 -87.077629 56.272831 66.583549 -36.035772 51.723942 29.830267 -83.149327 64.250673 75.293307 -70.381509 -72.130034 -87.280041 -149.919446 -26.606186 179.951684 40.011918 85.640524 -0.925393 1.501422 0.343871 -0.93425 0.048826 0.292357 -0.065493 115.00299 1.070307 -140.680128 98.392034 -48.542358 117.901978 -14.17393 -13.289186 -14.630035 -51.059804 -41.2046 -12.855142 150.013115 -31.957898 -129.862354 138.493117 4.896803 -114.865749 -13.197502 -8.656833 10.005167 82.840251 61.111895 -74.532352 -2.854572 1.673802 -0.388093 132.481109 54.103037 -155.533708 -6.505359 0.015446 6.861983 -32.647491 83.587514 -5.694709 170.356599 71.461499 145.475888 -4.8e-05 -0.001355 -2.4e-05 -12.617947 4.921759 -79.416653 -49.778051 7.056217 -61.380384 71.681638 -48.784065 155.491834 179.997643 75.748135 0.002432 -148.161848 -3.516879 91.115231 80.705451 -1.119609 170.783201 37.698494 85.251638 34.389648
79.8438 53.3017 48.9346 -166.774582 -27.129381 177.586837 7.291224 12.526161 -1.291476 3.030488 -7.165223 4.950984 2.606238 14.067799 22.777093 -7.028126 -26.393377 -2.980211 0.004212 0.0 9.7e-05 -0.001545 0.0 -0.003005 -159.221945 -48.028725 170.413734 -174.846574 78.089539 119.09285 -19.740775 63.7187 131.216083 -8.699869 -35.620239 -8.34371 -68.482156 37.953432 35.660093 -149.015932 -35.229562 85.692152 -2.686827 4.226442 1.584592 -7.20086 22.778193 6.660397 -11.031846 25.892098 7.684396 -1.222959 12.65158 2.192538 -72.96462 -72.143668 -89.98986 -79.222735 83.192043 97.068974 -7.143845 -15.707519 -6.727807 7.09499 13.173555 3.483735 157.641399 -66.7103 -175.900173 -101.583198 52.816055 77.132239 -85.182588 -42.989779 -63.762716 -174.868857 28.611423 -159.66483 159.653876 2.600898 -88.799172 -179.430414 -18.519417 -88.028018 23.850567 28.052182 -17.149176 153.987863 2.394485 -109.606637 10.975128 25.790096 -7.63961 163.166771 -4.728822 -143.32687 0.000777 0.063496 -0.021015 -10.239337 1.230808 -0.088975 -9.03049 28.890745 -7.893233 43.540543 -50.795957 43.250882 -179.98332 75.749872 -0.011412 129.430107 71.518118 -49.245826 -42.427315 -3.563937 100.535794 167.354858 -27.979375 44.403257 0.037107 0.001448 0.027831 71.361057 -57.55945 153.201661 79.753844 -9.508946 -8.398763 -141.342731 21.905438 65.255023
81.0702 53.2498 49.689699999999995 -167.984675 -27.076676 177.876676 6.300485 13.182929 -25.832718 4.832041 -5.399847 29.640935 2.536739 14.287671 23.338662 -7.589234 -27.156423 -3.743633 0.001971 0.0 0.001353 0.001971 0.0 0.001353 -28.375933 -85.199804 -49.670798 -62.545876 -23.987846 -40.877925 1.977 -6.686007 -142.436855 -160.366529 15.202633 137.761236 -1.582305 1.556809 0.264018 50.38285 -70.95196 -11.807139 159.642894 -69.973548 102.398417 -54.850027 55.06387 44.088272 -82.840524 61.11015 74.532391 -171.993786 -31.384934 143.888286 -0.015028 -1.323164 -0.415791 -156.458185 -30.820467 175.470859 -151.268287 33.67826 -146.89003 -165.429234 61.60788 -146.186301 159.220735 -48.724881 -170.568191 65.054233 -43.891885 80.999295 -88.887017 45.594709 108.84598 -172.411183 19.219616 -158.366337 173.770838 -11.439872 -89.891425 35.429014 -26.539595 -3.522013 -20.936054 -37.331612 5.932928 3.068238 24.256269 -5.348541 161.153215 -8.160665 -143.465222 7.746631 26.577628 -6.621235 -0.000256 0.036319 -0.011539 154.878022 5.938459 -171.070782 -12.254842 41.424681 -10.27816 43.795143 -50.666307 43.344459 -0.006354 0.001148 -0.003177 -16.893015 -2.561338 -180.0 6.498612 -60.232559 70.557373 29.280657 24.229151 82.10594 -0.006354 0.001148 -0.003177 68.554035 -58.357088 152.490128 73.392136 -8.825938 -60.755968 -94.722223 5.838344 19.395167
